<svg xmlns="http://www.w3.org/2000/svg" width="101.12mm" height="17.08mm" viewBox="0 0 286.64 48.42"><path d="M201.52,2.05c9.07,0,15.63,5.83,15.63,14.31S210.59,30.6,201.52,30.6h-8.35v17h-6.69V2.05Zm-1,23.12c5.7,0,9.67-3.58,9.67-8.81s-4-8.88-9.67-8.88h-7.35V25.17Z" style="fill:#040000"/><path d="M232.19,48.42c-6.1,0-10.4-4-10.4-9.6,0-6.83,6.42-11.6,15.76-11.6,1.59,0,3.18.07,4.77.2V25.17c0-3.64-2.91-6.23-7-6.23a21.87,21.87,0,0,0-10.66,3V16.36A26.89,26.89,0,0,1,236,13.71c7.62,0,12.65,4.84,12.65,11.66V47.62h-6.36v-3A16.37,16.37,0,0,1,232.19,48.42Zm2-5.23c2.78,0,5.63-1.39,8.14-4V31.66c-1.46-.13-2.85-.2-4.37-.2-5.7,0-9.54,2.65-9.54,6.43C228.41,41,230.8,43.19,234.18,43.19Z" style="fill:#040000"/><path d="M280,47.62V45A14.06,14.06,0,0,1,271,48.42c-8.75,0-14.91-7.15-14.91-17.35S262.26,13.71,271,13.71A14,14,0,0,1,280,17.16V0h6.69V47.62Zm-7.68-4.9A10.7,10.7,0,0,0,280,39.15V22.92a10.86,10.86,0,0,0-7.68-3.51c-5.5,0-9.34,4.77-9.34,11.66S266.77,42.72,272.27,42.72Z" style="fill:#040000"/><path d="M156.15,11.3a4.21,4.21,0,1,0-4.27-4.21,4.19,4.19,0,0,0,4.27,4.21" style="fill:#040000"/><rect x="152.86" y="16.31" width="6.47" height="30.75" style="fill:#040000"/><path d="M140,47.06V27c0-5.06-2.32-7.07-6.1-7.07a9.83,9.83,0,0,0-6.41,2.62V47.06h-6.47V27c0-5.06-3.11-7.07-7.2-7.07a8.57,8.57,0,0,0-5.37,1.58V47.06H102V18.14c3-2.44,7.93-3.66,12.5-3.66,4.27,0,7.81,1.16,10.13,3.54a18.66,18.66,0,0,1,10.68-3.54c7.08,0,11.16,3.72,11.16,11.28v21.3Z" style="fill:#040000"/><path d="M88.91,3.8V15.51a25,25,0,0,0-6.71-1c-9,0-15,6.16-15,17,0,11.23,7,17,16.72,17a32.73,32.73,0,0,0,11.47-2.32v-44ZM89,42.06a18.82,18.82,0,0,1-4.88.73c-6.22,0-9.94-4.27-9.94-11.35,0-7.69,3.29-11.47,9-11.47A19.41,19.41,0,0,1,89,21Z" style="fill:#040000"/><path d="M40.15,33.94H62.42c.3-12.75-4.27-19.46-14-19.46-8.9,0-15.31,5.67-15.31,16.72,0,11.83,6.53,17.2,16.41,17.2A26.55,26.55,0,0,0,61,45.66V40.35c-4.45,1.77-7.2,2.44-11.41,2.44C44.3,42.79,40.15,39.8,40.15,33.94Zm8.29-14.09c5.37,0,7.94,3.84,7.94,9H40.15C40.15,23.32,43.56,19.85,48.44,19.85Z" style="fill:#040000"/><path d="M20.74,27.23c5.19-2.2,8.42-6.59,8.42-12.14,0-7.14-5.3-12.2-13.54-12.2H0V47.06H6.47V28.2h7.62l8.73,18.86h7.63Zm-7.07-4.39H6.47V8.25h7.2c5.49,0,8.66,2.69,8.66,7.26S19.16,22.84,13.67,22.84Z" style="fill:#040000"/></svg>